<svg width="230" height="230" viewBox="0 0 230 230" fill="none" xmlns="http://www.w3.org/2000/svg">
<circle cx="40.5" cy="134.5" r="34.5" fill="#FAFFA6"/>
<circle cx="189.5" cy="134.5" r="34.5" fill="#FAFFA6"/>
<path d="M80.3311 84.6046V100.811C80.3311 102.037 80.3063 104.419 79.5024 105.032C78.7295 105.677 78.1295 106 77.0165 106C75.9034 106 75.3035 105.677 74.5305 105.032C73.7576 104.419 73.7019 102.037 73.7019 100.811V84.6046L61.5101 67.4212C61.17 66.8727 61 66.2918 61 65.6787C61 65.1301 61.1391 64.5977 61.4174 64.0814C61.6957 63.5651 62.0976 63.1294 62.6232 62.7745C63.4271 62.2582 64.2309 62 65.0348 62C65.5604 62 66.0396 62.1129 66.4725 62.3388C66.9053 62.5324 67.2609 62.839 67.5391 63.2585L77.0165 77.5L86.1826 63.5005C86.77 62.5647 87.6048 62.0968 88.687 62.0968C89.4599 62.0968 90.2483 62.3227 91.0522 62.7745C91.6087 63.0649 92.0725 63.4844 92.4435 64.033C92.8145 64.5815 93 65.1624 93 65.7755C93 66.3886 92.83 66.9372 92.4899 67.4212L80.3311 84.6046Z" fill="#FFB3B3"/>
<path d="M156.331 84.6046V100.811C156.331 102.037 156.306 104.419 155.502 105.032C154.729 105.677 154.13 106 153.016 106C151.903 106 151.303 105.677 150.531 105.032C149.758 104.419 149.702 102.037 149.702 100.811V84.6046L137.51 67.4212C137.17 66.8727 137 66.2918 137 65.6787C137 65.1301 137.139 64.5977 137.417 64.0814C137.696 63.5651 138.098 63.1294 138.623 62.7745C139.427 62.2582 140.231 62 141.035 62C141.56 62 142.04 62.1129 142.472 62.3388C142.905 62.5324 143.261 62.839 143.539 63.2585L153.016 77.5L162.183 63.5005C162.77 62.5647 163.605 62.0968 164.687 62.0968C165.46 62.0968 166.248 62.3227 167.052 62.7745C167.609 63.0649 168.072 63.4844 168.443 64.033C168.814 64.5815 169 65.1624 169 65.7755C169 66.3886 168.83 66.9372 168.49 67.4212L156.331 84.6046Z" fill="#FFB3B3"/>
<path fill-rule="evenodd" clip-rule="evenodd" d="M121 100.607C121 101.977 120.179 104.963 118.433 107.69C116.523 110.672 115.087 111 115 111C114.913 111 113.477 110.672 111.567 107.69C109.821 104.963 109 101.977 109 100.607C109 100.177 109.092 99.9579 109.164 99.8315C109.246 99.6868 109.425 99.4516 109.837 99.1772C110.737 98.5789 112.468 98 115 98C117.532 98 119.263 98.5789 120.163 99.1772C120.575 99.4516 120.754 99.6868 120.836 99.8315C120.908 99.9579 121 100.177 121 100.607ZM119.918 115.041C124.093 111.678 127 104.769 127 100.607C127 94.9479 121.627 92 115 92C108.373 92 103 94.9479 103 100.607C103 104.748 105.878 111.609 110.019 114.99C104.104 122.253 97.2563 127.627 89.0746 130.842C79.9462 134.428 68.8706 135.438 55.1054 133.023C53.2015 132.689 51.3873 133.962 51.0532 135.866C50.7192 137.77 51.9919 139.584 53.8958 139.918C68.6306 142.503 81.0549 141.513 91.6342 137.357C100.891 133.72 108.516 127.745 114.944 120.021C121.453 127.973 129.198 134.117 138.642 137.827C149.221 141.984 161.645 142.973 176.38 140.388C178.284 140.054 179.557 138.24 179.223 136.336C178.889 134.432 177.074 133.16 175.171 133.494C161.405 135.909 150.33 134.898 141.201 131.312C132.863 128.036 125.91 122.517 119.918 115.041Z" fill="#A3C7FB"/>
</svg>
