<?xml version="1.0" encoding="UTF-8"?>
<svg id="_레이어_2" data-name="레이어 2" xmlns="http://www.w3.org/2000/svg" viewBox="0 0 54 32.4">
  <defs>
    <style>
      .cls-1 {
        fill: #1cabc7;
        fill-rule: evenodd;
        stroke-width: 0px;
      }
    </style>
  </defs>
  <g id="_레이어_1-2" data-name="레이어 1">
    <path class="cls-1" d="M27,0c-7.2,0-11.7,3.6-13.5,10.8,2.7-3.6,5.85-4.95,9.45-4.05,2.05.51,3.52,2,5.15,3.65,2.65,2.69,5.71,5.8,12.4,5.8,7.2,0,11.7-3.6,13.5-10.8-2.7,3.6-5.85,4.95-9.45,4.05-2.05-.51-3.52-2-5.15-3.65-2.65-2.69-5.71-5.8-12.4-5.8ZM13.5,16.2c-7.2,0-11.7,3.6-13.5,10.8,2.7-3.6,5.85-4.95,9.45-4.05,2.05.51,3.52,2,5.15,3.65,2.65,2.69,5.71,5.8,12.4,5.8,7.2,0,11.7-3.6,13.5-10.8-2.7,3.6-5.85,4.95-9.45,4.05-2.05-.51-3.52-2-5.15-3.65-2.65-2.69-5.71-5.8-12.4-5.8Z"/>
  </g>
</svg>